<mxfile modified="2022-10-27T00:00:41.592Z" host="Electron" agent="5.0 (Windows NT 10.0; Win64; x64) AppleWebKit/537.36 (KHTML, like Gecko) draw.io/20.3.0 Chrome/104.0.5112.114 Electron/20.1.3 Safari/537.36" etag="EKODGtcOSIdrzPuQyCJB" compressed="false" version="20.3.0" type="device">
  <diagram id="d0OWMO7HLz8ORz33MV6Q" name="Functionality/System Logical Module/Modules">
    <mxGraphModel dx="920" dy="646" grid="1" gridSize="10" guides="1" tooltips="1" connect="1" arrows="1" fold="1" page="1" pageScale="1" pageWidth="827" pageHeight="1169" math="0" shadow="0">
      <root>
        <mxCell id="DmzuZqZtZWplpCiVpEfP-0" />
        <mxCell id="CSP66NI3M7eEUCRHC4Pb-2" value="Diagram/Use Cases" parent="DmzuZqZtZWplpCiVpEfP-0" />
        <mxCell id="AcwJKB1_M4AWWPX5vPzr-27" style="rounded=0;orthogonalLoop=1;jettySize=auto;html=1;entryX=0;entryY=1;entryDx=0;entryDy=0;exitX=1;exitY=0.5;exitDx=0;exitDy=0;" edge="1" parent="CSP66NI3M7eEUCRHC4Pb-2" source="AcwJKB1_M4AWWPX5vPzr-2" target="AcwJKB1_M4AWWPX5vPzr-10">
          <mxGeometry relative="1" as="geometry" />
        </mxCell>
        <mxCell id="AcwJKB1_M4AWWPX5vPzr-28" style="edgeStyle=none;rounded=0;orthogonalLoop=1;jettySize=auto;html=1;entryX=0;entryY=1;entryDx=0;entryDy=0;exitX=1;exitY=0.5;exitDx=0;exitDy=0;" edge="1" parent="CSP66NI3M7eEUCRHC4Pb-2" source="AcwJKB1_M4AWWPX5vPzr-2" target="AcwJKB1_M4AWWPX5vPzr-15">
          <mxGeometry relative="1" as="geometry" />
        </mxCell>
        <mxCell id="AcwJKB1_M4AWWPX5vPzr-29" style="edgeStyle=none;rounded=0;orthogonalLoop=1;jettySize=auto;html=1;exitX=1;exitY=0.5;exitDx=0;exitDy=0;entryX=0;entryY=1;entryDx=0;entryDy=0;" edge="1" parent="CSP66NI3M7eEUCRHC4Pb-2" source="AcwJKB1_M4AWWPX5vPzr-2" target="AcwJKB1_M4AWWPX5vPzr-20">
          <mxGeometry relative="1" as="geometry" />
        </mxCell>
        <mxCell id="AcwJKB1_M4AWWPX5vPzr-36" style="edgeStyle=none;rounded=0;orthogonalLoop=1;jettySize=auto;html=1;entryX=0;entryY=1;entryDx=0;entryDy=0;exitX=1;exitY=0.5;exitDx=0;exitDy=0;" edge="1" parent="CSP66NI3M7eEUCRHC4Pb-2" source="AcwJKB1_M4AWWPX5vPzr-2" target="AcwJKB1_M4AWWPX5vPzr-32">
          <mxGeometry relative="1" as="geometry" />
        </mxCell>
        <mxCell id="AcwJKB1_M4AWWPX5vPzr-2" value="&amp;lt;&amp;lt;actor&amp;gt;&amp;gt;&lt;br&gt;&lt;b&gt;Authorised&lt;br&gt;User&lt;br&gt;&lt;/b&gt;" style="text;html=1;align=center;verticalAlign=middle;dashed=0;fillColor=#ffffff;strokeColor=#000000;" vertex="1" parent="CSP66NI3M7eEUCRHC4Pb-2">
          <mxGeometry x="120" y="240" width="80" height="40" as="geometry" />
        </mxCell>
        <mxCell id="AcwJKB1_M4AWWPX5vPzr-3" value="" style="fontStyle=1;align=left;verticalAlign=top;childLayout=stackLayout;horizontal=1;horizontalStack=0;resizeParent=1;resizeParentMax=0;resizeLast=0;marginBottom=0;" vertex="1" parent="CSP66NI3M7eEUCRHC4Pb-2">
          <mxGeometry x="280" y="80" width="120" height="40" as="geometry" />
        </mxCell>
        <mxCell id="AcwJKB1_M4AWWPX5vPzr-4" value="&lt;p style=&quot;line-height: 0.9;&quot;&gt;List Modules&lt;/p&gt;" style="html=1;align=left;spacingLeft=4;verticalAlign=middle;strokeColor=none;fillColor=none;fontStyle=1;spacingTop=2;" vertex="1" parent="AcwJKB1_M4AWWPX5vPzr-3">
          <mxGeometry width="120" height="20" as="geometry" />
        </mxCell>
        <mxCell id="AcwJKB1_M4AWWPX5vPzr-5" value="" style="shape=ellipse;" vertex="1" parent="AcwJKB1_M4AWWPX5vPzr-4">
          <mxGeometry x="1" width="20" height="10" relative="1" as="geometry">
            <mxPoint x="-25" y="5" as="offset" />
          </mxGeometry>
        </mxCell>
        <mxCell id="AcwJKB1_M4AWWPX5vPzr-6" value="" style="line;strokeWidth=1;fillColor=none;align=left;verticalAlign=middle;spacingTop=-1;spacingLeft=3;spacingRight=3;rotatable=0;labelPosition=right;points=[];portConstraint=eastwest;" vertex="1" parent="AcwJKB1_M4AWWPX5vPzr-3">
          <mxGeometry y="20" width="120" height="8" as="geometry" />
        </mxCell>
        <mxCell id="AcwJKB1_M4AWWPX5vPzr-7" value="Filtered,Sorted,Paged Summaries" style="html=1;align=left;spacingLeft=4;verticalAlign=top;strokeColor=none;fillColor=none;fontSize=8;spacing=-2;" vertex="1" parent="AcwJKB1_M4AWWPX5vPzr-3">
          <mxGeometry y="28" width="120" height="12" as="geometry" />
        </mxCell>
        <mxCell id="AcwJKB1_M4AWWPX5vPzr-8" value="" style="endArrow=open;endFill=1;endSize=12;html=1;strokeColor=#000000;fontSize=10;entryX=0;entryY=1;entryDx=0;entryDy=0;exitX=1;exitY=0.5;exitDx=0;exitDy=0;" edge="1" parent="CSP66NI3M7eEUCRHC4Pb-2" source="AcwJKB1_M4AWWPX5vPzr-2" target="AcwJKB1_M4AWWPX5vPzr-4">
          <mxGeometry width="160" relative="1" as="geometry">
            <mxPoint x="320" y="90" as="sourcePoint" />
            <mxPoint x="360" y="90" as="targetPoint" />
          </mxGeometry>
        </mxCell>
        <mxCell id="AcwJKB1_M4AWWPX5vPzr-9" value="" style="fontStyle=1;align=left;verticalAlign=top;childLayout=stackLayout;horizontal=1;horizontalStack=0;resizeParent=1;resizeParentMax=0;resizeLast=0;marginBottom=0;" vertex="1" parent="CSP66NI3M7eEUCRHC4Pb-2">
          <mxGeometry x="280" y="160" width="120" height="40" as="geometry" />
        </mxCell>
        <mxCell id="AcwJKB1_M4AWWPX5vPzr-10" value="&lt;p style=&quot;line-height: 0.9;&quot;&gt;View Module&lt;br&gt;Description&lt;/p&gt;" style="html=1;align=left;spacingLeft=4;verticalAlign=middle;strokeColor=none;fillColor=none;fontStyle=1;spacingTop=2;" vertex="1" parent="AcwJKB1_M4AWWPX5vPzr-9">
          <mxGeometry width="120" height="20" as="geometry" />
        </mxCell>
        <mxCell id="AcwJKB1_M4AWWPX5vPzr-11" value="" style="shape=ellipse;" vertex="1" parent="AcwJKB1_M4AWWPX5vPzr-10">
          <mxGeometry x="1" width="20" height="10" relative="1" as="geometry">
            <mxPoint x="-25" y="5" as="offset" />
          </mxGeometry>
        </mxCell>
        <mxCell id="AcwJKB1_M4AWWPX5vPzr-12" value="" style="line;strokeWidth=1;fillColor=none;align=left;verticalAlign=middle;spacingTop=-1;spacingLeft=3;spacingRight=3;rotatable=0;labelPosition=right;points=[];portConstraint=eastwest;" vertex="1" parent="AcwJKB1_M4AWWPX5vPzr-9">
          <mxGeometry y="20" width="120" height="8" as="geometry" />
        </mxCell>
        <mxCell id="AcwJKB1_M4AWWPX5vPzr-13" value="- - -" style="html=1;align=left;spacingLeft=4;verticalAlign=top;strokeColor=none;fillColor=none;fontSize=8;spacing=-2;" vertex="1" parent="AcwJKB1_M4AWWPX5vPzr-9">
          <mxGeometry y="28" width="120" height="12" as="geometry" />
        </mxCell>
        <mxCell id="AcwJKB1_M4AWWPX5vPzr-14" value="" style="fontStyle=1;align=left;verticalAlign=top;childLayout=stackLayout;horizontal=1;horizontalStack=0;resizeParent=1;resizeParentMax=0;resizeLast=0;marginBottom=0;" vertex="1" parent="CSP66NI3M7eEUCRHC4Pb-2">
          <mxGeometry x="280" y="240" width="120" height="40" as="geometry" />
        </mxCell>
        <mxCell id="AcwJKB1_M4AWWPX5vPzr-15" value="&lt;p style=&quot;line-height: 0.9;&quot;&gt;Edit Module&lt;br&gt;Description&lt;/p&gt;" style="html=1;align=left;spacingLeft=4;verticalAlign=middle;strokeColor=none;fillColor=none;fontStyle=1;spacingTop=2;" vertex="1" parent="AcwJKB1_M4AWWPX5vPzr-14">
          <mxGeometry width="120" height="20" as="geometry" />
        </mxCell>
        <mxCell id="AcwJKB1_M4AWWPX5vPzr-16" value="" style="shape=ellipse;" vertex="1" parent="AcwJKB1_M4AWWPX5vPzr-15">
          <mxGeometry x="1" width="20" height="10" relative="1" as="geometry">
            <mxPoint x="-25" y="5" as="offset" />
          </mxGeometry>
        </mxCell>
        <mxCell id="AcwJKB1_M4AWWPX5vPzr-17" value="" style="line;strokeWidth=1;fillColor=none;align=left;verticalAlign=middle;spacingTop=-1;spacingLeft=3;spacingRight=3;rotatable=0;labelPosition=right;points=[];portConstraint=eastwest;" vertex="1" parent="AcwJKB1_M4AWWPX5vPzr-14">
          <mxGeometry y="20" width="120" height="8" as="geometry" />
        </mxCell>
        <mxCell id="AcwJKB1_M4AWWPX5vPzr-18" value="- - -" style="html=1;align=left;spacingLeft=4;verticalAlign=top;strokeColor=none;fillColor=none;fontSize=8;spacing=-2;" vertex="1" parent="AcwJKB1_M4AWWPX5vPzr-14">
          <mxGeometry y="28" width="120" height="12" as="geometry" />
        </mxCell>
        <mxCell id="AcwJKB1_M4AWWPX5vPzr-19" value="" style="fontStyle=1;align=left;verticalAlign=top;childLayout=stackLayout;horizontal=1;horizontalStack=0;resizeParent=1;resizeParentMax=0;resizeLast=0;marginBottom=0;" vertex="1" parent="CSP66NI3M7eEUCRHC4Pb-2">
          <mxGeometry x="280" y="320" width="120" height="40" as="geometry" />
        </mxCell>
        <mxCell id="AcwJKB1_M4AWWPX5vPzr-20" value="&lt;p style=&quot;line-height: 0.9;&quot;&gt;Register &amp;amp; &lt;br&gt;Describe Module&lt;/p&gt;" style="html=1;align=left;spacingLeft=4;verticalAlign=middle;strokeColor=none;fillColor=none;fontStyle=1;spacingTop=2;" vertex="1" parent="AcwJKB1_M4AWWPX5vPzr-19">
          <mxGeometry width="120" height="20" as="geometry" />
        </mxCell>
        <mxCell id="AcwJKB1_M4AWWPX5vPzr-21" value="" style="shape=ellipse;" vertex="1" parent="AcwJKB1_M4AWWPX5vPzr-20">
          <mxGeometry x="1" width="20" height="10" relative="1" as="geometry">
            <mxPoint x="-25" y="5" as="offset" />
          </mxGeometry>
        </mxCell>
        <mxCell id="AcwJKB1_M4AWWPX5vPzr-22" value="" style="line;strokeWidth=1;fillColor=none;align=left;verticalAlign=middle;spacingTop=-1;spacingLeft=3;spacingRight=3;rotatable=0;labelPosition=right;points=[];portConstraint=eastwest;" vertex="1" parent="AcwJKB1_M4AWWPX5vPzr-19">
          <mxGeometry y="20" width="120" height="8" as="geometry" />
        </mxCell>
        <mxCell id="AcwJKB1_M4AWWPX5vPzr-23" value="Describe &amp;amp; In/Out Scope usage&amp;nbsp;" style="html=1;align=left;spacingLeft=4;verticalAlign=top;strokeColor=none;fillColor=none;fontSize=8;spacing=-2;" vertex="1" parent="AcwJKB1_M4AWWPX5vPzr-19">
          <mxGeometry y="28" width="120" height="12" as="geometry" />
        </mxCell>
        <mxCell id="AcwJKB1_M4AWWPX5vPzr-24" style="edgeStyle=orthogonalEdgeStyle;rounded=0;orthogonalLoop=1;jettySize=auto;html=1;entryX=0.5;entryY=1;entryDx=0;entryDy=0;" edge="1" parent="CSP66NI3M7eEUCRHC4Pb-2" source="AcwJKB1_M4AWWPX5vPzr-20" target="AcwJKB1_M4AWWPX5vPzr-18">
          <mxGeometry relative="1" as="geometry" />
        </mxCell>
        <mxCell id="AcwJKB1_M4AWWPX5vPzr-25" style="edgeStyle=orthogonalEdgeStyle;rounded=0;orthogonalLoop=1;jettySize=auto;html=1;entryX=0.5;entryY=0;entryDx=0;entryDy=0;" edge="1" parent="CSP66NI3M7eEUCRHC4Pb-2" source="AcwJKB1_M4AWWPX5vPzr-13" target="AcwJKB1_M4AWWPX5vPzr-15">
          <mxGeometry relative="1" as="geometry" />
        </mxCell>
        <mxCell id="AcwJKB1_M4AWWPX5vPzr-26" style="edgeStyle=orthogonalEdgeStyle;rounded=0;orthogonalLoop=1;jettySize=auto;html=1;entryX=0.5;entryY=0;entryDx=0;entryDy=0;" edge="1" parent="CSP66NI3M7eEUCRHC4Pb-2" source="AcwJKB1_M4AWWPX5vPzr-7" target="AcwJKB1_M4AWWPX5vPzr-10">
          <mxGeometry relative="1" as="geometry" />
        </mxCell>
        <mxCell id="AcwJKB1_M4AWWPX5vPzr-30" value="Admittedly, providing Module management is &lt;br&gt;relatively rare in systems -- but designing for it&lt;br&gt;does reduce improve design and development outcomes, while reducing operation and maintenance effort later." style="shape=note;whiteSpace=wrap;html=1;size=14;verticalAlign=top;align=left;spacingTop=-6;strokeWidth=1;fillColor=none;fontSize=12;" vertex="1" parent="CSP66NI3M7eEUCRHC4Pb-2">
          <mxGeometry x="440" y="215" width="280" height="90" as="geometry" />
        </mxCell>
        <mxCell id="AcwJKB1_M4AWWPX5vPzr-31" value="" style="fontStyle=1;align=left;verticalAlign=top;childLayout=stackLayout;horizontal=1;horizontalStack=0;resizeParent=1;resizeParentMax=0;resizeLast=0;marginBottom=0;" vertex="1" parent="CSP66NI3M7eEUCRHC4Pb-2">
          <mxGeometry x="280" y="400" width="120" height="40" as="geometry" />
        </mxCell>
        <mxCell id="AcwJKB1_M4AWWPX5vPzr-32" value="&lt;p style=&quot;line-height: 0.9;&quot;&gt;Change State&lt;/p&gt;" style="html=1;align=left;spacingLeft=4;verticalAlign=middle;strokeColor=none;fillColor=none;fontStyle=1;spacingTop=2;" vertex="1" parent="AcwJKB1_M4AWWPX5vPzr-31">
          <mxGeometry width="120" height="20" as="geometry" />
        </mxCell>
        <mxCell id="AcwJKB1_M4AWWPX5vPzr-33" value="" style="shape=ellipse;" vertex="1" parent="AcwJKB1_M4AWWPX5vPzr-32">
          <mxGeometry x="1" width="20" height="10" relative="1" as="geometry">
            <mxPoint x="-25" y="5" as="offset" />
          </mxGeometry>
        </mxCell>
        <mxCell id="AcwJKB1_M4AWWPX5vPzr-34" value="" style="line;strokeWidth=1;fillColor=none;align=left;verticalAlign=middle;spacingTop=-1;spacingLeft=3;spacingRight=3;rotatable=0;labelPosition=right;points=[];portConstraint=eastwest;" vertex="1" parent="AcwJKB1_M4AWWPX5vPzr-31">
          <mxGeometry y="20" width="120" height="8" as="geometry" />
        </mxCell>
        <mxCell id="AcwJKB1_M4AWWPX5vPzr-35" value="Disable/Enable/Time Bound, etc." style="html=1;align=left;spacingLeft=4;verticalAlign=top;strokeColor=none;fillColor=none;fontSize=8;spacing=-2;" vertex="1" parent="AcwJKB1_M4AWWPX5vPzr-31">
          <mxGeometry y="28" width="120" height="12" as="geometry" />
        </mxCell>
        <mxCell id="UksWfP1gVPME-j8JooyC-0" value="Title/Diagram" parent="DmzuZqZtZWplpCiVpEfP-0" />
        <mxCell id="UksWfP1gVPME-j8JooyC-1" value="&lt;font style=&quot;font-size: 12px&quot;&gt;&lt;i style=&quot;font-weight: normal&quot;&gt;&lt;span style=&quot;font-size: 12px&quot;&gt;Diagram: Base&amp;nbsp;&lt;/span&gt;&lt;/i&gt;&lt;span style=&quot;font-style: italic ; font-weight: 400&quot;&gt;System&lt;/span&gt;&lt;span style=&quot;font-style: italic ; font-weight: 400&quot;&gt;&amp;nbsp;&lt;/span&gt;&lt;i style=&quot;font-weight: normal&quot;&gt;&lt;span style=&quot;font-size: 12px&quot;&gt;Logical Module -&amp;nbsp;&lt;/span&gt;&lt;span style=&quot;font-size: 12px&quot;&gt;Functionality -&amp;nbsp;&lt;/span&gt;System Module Management&lt;/i&gt;&lt;/font&gt;" style="text;strokeColor=none;fillColor=none;html=1;fontSize=12;fontStyle=1;verticalAlign=middle;align=left;shadow=0;glass=0;comic=0;opacity=30;fontColor=#808080;" parent="UksWfP1gVPME-j8JooyC-0" vertex="1">
          <mxGeometry x="120" y="455" width="520" height="20" as="geometry" />
        </mxCell>
        <mxCell id="DmzuZqZtZWplpCiVpEfP-1" value="About" parent="DmzuZqZtZWplpCiVpEfP-0" />
        <UserObject label="" tooltip="ABOUT&#xa;&#xa;Systems that are expected to be maintainable and improvable over a long duration are expected to broken down into separate Logical Modules to keep them from growing into one un-maintainable, monolithic &quot;ball of mud&quot;. &#xa;&#xa;&#xa;&#xa;The first Logical Module (the &quot;Core&quot; module deals with issues common to just about all IT systems: diagnostics, errors, sessions, identity, authorisation, commands, system and application context and status information, tenancies, media, etc.&#xa;&#xa;&#xa;&#xa;By reusing and leveraging common Core functionality and models, other modules can remain focused on a specific business problem (Schooling, Pharmacies, Food handling, etc.) while remaining easy and cost effective to develop and extend. &#xa;&#xa;&#xa;Note:&#xa;as shown more clearly in the Development View, Logical Modules are made up of a set of Assemblies." id="O1NMRd1u0_kbX6DRId-m-0">
          <mxCell style="shape=image;html=1;verticalAlign=top;verticalLabelPosition=bottom;labelBackgroundColor=#ffffff;imageAspect=0;aspect=fixed;image=https://cdn1.iconfinder.com/data/icons/hawcons/32/699014-icon-28-information-128.png;shadow=0;dashed=0;fontFamily=Helvetica;fontSize=12;fontColor=#000000;align=center;strokeColor=#000000;fillColor=#505050;dashPattern=1 1;" parent="DmzuZqZtZWplpCiVpEfP-1" vertex="1">
            <mxGeometry x="660" y="575" width="20" height="20" as="geometry" />
          </mxCell>
        </UserObject>
      </root>
    </mxGraphModel>
  </diagram>
</mxfile>
